<?xml version="1.0" encoding="UTF-8"?>
<svg width="22px" height="22px" viewBox="0 0 22 22" version="1.1" xmlns="http://www.w3.org/2000/svg" xmlns:xlink="http://www.w3.org/1999/xlink">
    <!-- Generator: Sketch 53.2 (72643) - https://sketchapp.com -->
    <title>相机 拍照@3x</title>
    <desc>Created with Sketch.</desc>
    <g id="个人中心" stroke="none" stroke-width="1" fill="none" fill-rule="evenodd">
        <g id="个人中心-宝宝信息" transform="translate(-208.000000, -147.000000)">
            <g id="相机-拍照" transform="translate(208.000000, 147.000000)">
                <circle id="Oval" fill="#FFD631" cx="11" cy="11" r="11"></circle>
                <path d="M14.4270674,7.97752809 L13.9139551,6.7041236 C13.7423996,6.27781695 13.3285409,5.99894293 12.8690112,6 L9.12370787,6 C8.6632541,5.99955425 8.2491318,6.28008872 8.07876404,6.70786517 L7.56565169,7.99251685 L5.94393258,8.24719101 C5.39591913,8.33786501 4.99640315,8.81537225 5.00385393,9.37078652 L5.00385393,14.988764 C5.00385393,15.6093087 5.50690478,16.1123596 6.12744944,16.1123596 L15.8652809,16.1123596 C16.4858256,16.1123596 16.9888764,15.6093087 16.9888764,14.988764 L16.9888764,9.37078652 C16.9963272,8.81537225 16.5968112,8.33786501 16.0487978,8.24719101 L14.4270674,7.97752809 Z" id="Shape" fill="#FFFFFF" fill-rule="nonzero"></path>
                <path d="M10.9963483,8.62173034 C9.78447388,8.62173034 8.69192862,9.35174648 8.2281654,10.4713729 C7.76440219,11.5909993 8.0207514,12.8797444 8.87767764,13.7366674 C9.73460387,14.5935904 11.0233499,14.8499348 12.1429746,14.3861674 C13.2625992,13.9224 13.9926113,12.829852 13.9926067,11.6179775 C13.9926005,9.96319408 12.6511318,8.62173034 10.9963483,8.62173034 L10.9963483,8.62173034 Z M12.7004719,13.0786517 C12.1089208,13.7687271 11.1599211,14.0345025 10.2960035,13.7520433 C9.43208598,13.4695841 8.82339092,12.6945181 8.75376074,11.7882685 C8.68413056,10.8820189 9.16727826,10.0230629 9.97790582,9.61194286 C10.7885334,9.20082282 11.7669954,9.31850487 12.4570225,9.91011236 C12.9105742,10.2981208 13.1911301,10.8506269 13.2368016,11.4457519 C13.2824731,12.0408769 13.0895076,12.6297224 12.7004719,13.0823933 L12.7004719,13.0786517 Z" id="Shape" fill="#FFD631" fill-rule="nonzero"></path>
            </g>
        </g>
    </g>
</svg>