<?xml version="1.0" encoding="UTF-8"?>
<svg width="48px" height="34px" viewBox="0 0 48 34" version="1.1" xmlns="http://www.w3.org/2000/svg" xmlns:xlink="http://www.w3.org/1999/xlink">
    <!-- Generator: Sketch 53.2 (72643) - https://sketchapp.com -->
    <title>Tab Bar/Icons/Active/课程中心</title>
    <desc>Created with Sketch.</desc>
    <g id="Tab-Bar/Icons/Active/课程中心" stroke="none" stroke-width="1" fill="none" fill-rule="evenodd">
        <g id="课程" transform="translate(11.000000, 6.000000)" fill-rule="nonzero">
            <path d="M23.706,2.76646028 L23.706,2.2037904 C23.706,0.984672304 22.572,8.1339722e-17 21.168,8.1339722e-17 C20.79,8.1339722e-17 20.412,0.0937783147 20.088,0.187556629 L13.23,2.95401691 L6.372,0.187556629 C6.048,0.0468891574 5.67,0 5.292,0 C3.888,0 2.754,0.984672304 2.754,2.2037904 L2.754,2.76646028 C0.972,3.00090607 0,4.40758079 0,6.09559046 L0,18.8025521 C0,20.6312292 1.188,22.1785714 3.294,22.1785714 L23.112,22.1785714 C25.218,22.1785714 27,20.6781184 27,18.8025521 L27,6.09559046 C27,4.40758079 25.596,3.00090607 23.706,2.76646028 Z" id="Path" fill="#FFD631"></path>
            <path d="M23.706,2.76646028 L23.706,2.2037904 C23.706,0.984672304 22.572,8.1339722e-17 21.168,8.1339722e-17 C20.79,8.1339722e-17 20.412,0.0937783147 20.088,0.187556629 L13.23,2.95401691 L6.372,0.187556629 C6.048,0.0468891574 5.67,0 5.292,0 C3.888,0 2.754,0.984672304 2.754,2.2037904 L2.754,2.76646028 C0.972,3.00090607 0,4.40758079 0,6.09559046 L0,18.8025521 C0,20.6312292 1.188,22.1785714 3.294,22.1785714 L23.112,22.1785714 C25.218,22.1785714 27,20.6781184 27,18.8025521 L27,6.09559046 C27,4.40758079 25.596,3.00090607 23.706,2.76646028 Z M20.574,1.07845062 C20.736,0.984672304 20.952,0.937783147 21.168,0.937783147 C21.87,0.937783147 22.572,1.40667472 22.572,2.15690124 L22.572,15.9423135 C22.572,16.4112051 22.248,16.8800966 21.762,17.0676533 L13.77,20.3030051 L13.77,3.79802175 L20.574,1.07845062 Z M3.888,2.2037904 C3.888,1.40667472 4.59,0.937783147 5.292,0.937783147 C5.508,0.937783147 5.724,0.984672304 5.886,1.07845062 L12.636,3.79802175 L12.636,20.3030051 L4.698,17.0676533 C4.212,16.8800966 3.888,16.4580942 3.888,15.9423135 L3.888,2.2037904 Z M1.134,18.8025521 L1.134,6.09559046 C1.134,4.97025068 1.62,4.03246753 2.754,3.75113259 L2.754,15.9423135 C2.754,16.7863183 3.348,17.583434 4.212,17.9585473 L12.096,21.14701 L3.294,21.14701 C1.782,21.14701 1.134,20.1154485 1.134,18.8025521 Z M25.866,18.8025521 C25.866,20.1154485 24.624,21.1938991 23.112,21.1938991 L14.364,21.1938991 L22.248,18.0054364 C23.166,17.6303232 23.706,16.8332075 23.706,15.9892027 L23.706,3.75113259 C24.948,3.98557838 25.866,4.92336152 25.866,6.09559046 L25.866,18.8025521 Z" id="Shape" stroke="#343A3E" stroke-width="0.1" fill="#343A3E"></path>
        </g>
    </g>
</svg>