<?xml version="1.0" encoding="UTF-8"?>
<svg width="48px" height="34px" viewBox="0 0 48 34" version="1.1" xmlns="http://www.w3.org/2000/svg" xmlns:xlink="http://www.w3.org/1999/xlink">
    <!-- Generator: Sketch 53.2 (72643) - https://sketchapp.com -->
    <title>Tab Bar/Icons/Unselected/我的课堂</title>
    <desc>Created with Sketch.</desc>
    <g id="Tab-Bar/Icons/Unselected/我的课堂" stroke="none" stroke-width="1" fill="none" fill-rule="evenodd">
        <g id="我的课堂-2" transform="translate(11.000000, 6.000000)" fill="#6A6A6A" fill-rule="nonzero">
            <g id="我的课堂">
                <path d="M20.9732143,5.55718493 L20.9732143,3.97749264 C20.9732143,2.06460725 19.6844255,2.98087448e-15 17.6296584,2.98087448e-15 L3.77213898,2.98087448e-15 C1.64138199,0.0029749384 0,2.14195565 0,3.98046758 L0,17.7484825 C0,19.655418 1.68697593,21.2142857 3.77213898,21.2142857 L17.6296584,21.2142857 C19.5567624,21.2142857 20.9732143,19.753591 20.9732143,17.7484825 L20.9732143,16.1687902 L24.9228271,20.0645447 C25.3160231,20.452379 25.9491731,20.4480324 26.3370073,20.0548364 C26.521582,19.8677101 26.6250631,19.6154389 26.6250631,19.3526005 L26.6250631,2.38567093 C26.6250631,1.83338618 26.1773478,1.38567093 25.6250631,1.38567093 C25.3627718,1.38567093 25.1109806,1.48872278 24.923953,1.67261784 L20.9732143,5.55718493 Z M16.5979637,19.8878359 L4.44687325,19.8878359 C2.790019,19.8878359 1.44687325,18.5446902 1.44687325,16.8878359 L1.44687325,4.45192932 C1.44687325,2.79507507 2.790019,1.45192932 4.44687325,1.45192932 L16.5979637,1.45192932 C18.2548179,1.45192932 19.5979637,2.79507507 19.5979637,4.45192932 L19.5979637,16.8878359 C19.5979637,18.5446902 18.2548179,19.8878359 16.5979637,19.8878359 Z M25.1678571,18.5705955 L20.9732143,14.1795864 L20.9732143,7.47129416 L25.1678571,3.19135792 L25.1678571,18.5705955 Z" id="Shape"></path>
                <path d="M15.0021681,9.56246029 L9.43473598,6.68474338 C8.83991141,6.37713528 8.10660916,6.38001012 7.51807903,6.69624275 C6.92640168,7.00960053 6.57391304,7.57019474 6.57391304,8.19116063 L6.57391304,13.9465945 C6.57391304,14.5675603 6.92640168,15.1281545 7.51807903,15.4415123 C7.81706493,15.5996286 8.15067024,15.6801242 8.48742278,15.6801242 C8.81473365,15.6801242 9.14204453,15.6053783 9.43473598,15.4530117 L14.9990209,12.5752948 C15.5938454,12.2676867 15.9652174,11.6898434 15.9652174,11.0688775 C15.9652174,10.4479117 15.5969927,9.8700684 15.0021681,9.56246029 L15.0021681,9.56246029 Z M8.38970605,7.81617569 L14.2822457,10.7098336 C14.4805402,10.8072103 14.5623502,11.0468993 14.4649734,11.2451938 C14.4259586,11.3246423 14.3616942,11.3889066 14.2822457,11.4279215 L8.38970605,14.3215794 C8.19141153,14.4189562 7.95172259,14.3371462 7.85434582,14.1388516 C7.82740051,14.0839812 7.81338981,14.0236649 7.81338981,13.9625354 L7.81338981,8.17521968 C7.81338981,7.95430578 7.99247591,7.77521968 8.21338981,7.77521968 C8.27451931,7.77521968 8.3348356,7.78923038 8.38970605,7.81617569 Z" id="Shape"></path>
            </g>
        </g>
    </g>
</svg>