<?xml version="1.0" encoding="UTF-8"?>
<svg width="48px" height="34px" viewBox="0 0 48 34" version="1.1" xmlns="http://www.w3.org/2000/svg" xmlns:xlink="http://www.w3.org/1999/xlink">
    <!-- Generator: Sketch 53.2 (72643) - https://sketchapp.com -->
    <title>Tab Bar/Icons/Unselected/课程中心</title>
    <desc>Created with Sketch.</desc>
    <g id="Tab-Bar/Icons/Unselected/课程中心" stroke="none" stroke-width="1" fill="none" fill-rule="evenodd">
        <g id="书" transform="translate(14.000000, 5.000000)" fill="#6A6A6A" fill-rule="nonzero">
            <path d="M16.8181818,21.6 L3.18181818,21.6 C2.80545455,21.6 2.5,21.2416 2.5,20.8 C2.5,20.3584 2.80545455,20 3.18181818,20 L16.8181818,20 C17.1945455,20 17.5,20.3584 17.5,20.8 C17.5,21.2416 17.1945455,21.6 16.8181818,21.6 Z" id="Path"></path>
            <path d="M19.3333333,2.52631579 C18.9653333,2.52631579 18.6666667,2.80926316 18.6666667,3.15789474 L18.6666667,22.1052632 C18.6666667,22.4538947 18.368,22.7368421 18,22.7368421 L3.33333333,22.7368421 C2.23066667,22.7368421 1.33333333,21.8867368 1.33333333,20.8421053 C1.33333333,19.7974737 2.23066667,18.9473684 3.33333333,18.9473684 L15.3333333,18.9473684 C16.436,18.9473684 17.3333333,18.0972632 17.3333333,17.0526316 L17.3333333,1.89473684 C17.3333333,0.850105263 16.436,0 15.3333333,0 L2,0 C0.897333333,0 0,0.850105263 0,1.89473684 L0,20.8421053 C0,22.5827368 1.496,24 3.33333333,24 L18,24 C19.1026667,24 20,23.1498947 20,22.1052632 L20,3.15789474 C20,2.80926316 19.7013333,2.52631579 19.3333333,2.52631579 L19.3333333,2.52631579 Z M2,1.26315789 L15.3333333,1.26315789 C15.7013333,1.26315789 16,1.54610526 16,1.89473684 L16,17.0526316 C16,17.4012632 15.7013333,17.6842105 15.3333333,17.6842105 L3.33333333,17.6842105 C2.584,17.6842105 1.89066667,17.9204211 1.33333333,18.3170526 L1.33333333,1.89473684 C1.33333333,1.54610526 1.632,1.26315789 2,1.26315789 Z" id="Shape"></path>
        </g>
    </g>
</svg>