<?xml version="1.0" encoding="UTF-8"?>
<svg width="48px" height="34px" viewBox="0 0 48 34" version="1.1" xmlns="http://www.w3.org/2000/svg" xmlns:xlink="http://www.w3.org/1999/xlink">
    <!-- Generator: Sketch 53.2 (72643) - https://sketchapp.com -->
    <title>Tab Bar/Icons/Active/我的课程</title>
    <desc>Created with Sketch.</desc>
    <g id="Tab-Bar/Icons/Active/我的课程" stroke="none" stroke-width="1" fill="none" fill-rule="evenodd">
        <g id="课程中心" transform="translate(12.000000, 5.000000)" fill-rule="nonzero">
            <path d="M23.8510458,5.23034483 L1.10651694,5.23034483 C0.494764183,5.23034483 0,5.74973324 0,6.38937414 L0,22.3087569 C0,22.9509564 0.494764183,23.4703448 1.10651694,23.4703448 L23.8534831,23.4703448 C24.4652358,23.4703448 24.96,22.9509564 24.96,22.3087569 L24.96,6.38937414 C24.9575627,5.74973324 24.4627986,5.23034483 23.8510458,5.23034483 Z" id="Path" fill="#FFD631"></path>
            <path d="M23.8510458,5.36694353 L1.10651694,5.36694353 C0.494764183,5.36694353 0,5.88244226 0,6.51729292 L0,22.317456 C0,22.9548461 0.494764183,23.4703448 1.10651694,23.4703448 L23.8534831,23.4703448 C24.4652358,23.4703448 24.96,22.9548461 24.96,22.317456 L24.96,6.51729292 C24.9575627,5.88244226 24.4627986,5.36694353 23.8510458,5.36694353 Z M23.6677469,22.3927591 L1.28981585,22.3927591 L1.28981585,6.44198986 L23.6650911,6.44198986 L23.6650911,22.3927591 L23.6677469,22.3927591 Z M3.11313895,2.20265252 L21.614985,2.20265252 C22.1043942,2.20265252 22.5011388,1.80590793 22.5011388,1.31649867 L22.5011388,1.31649867 C22.5011388,0.827089419 22.1043942,0.430344828 21.614985,0.430344828 L3.11313895,0.430344828 C2.6237297,0.430344828 2.22698511,0.827089419 2.22698511,1.31649867 L2.22698511,1.31649867 C2.22698511,1.80590793 2.6237297,2.20265252 3.11313895,2.20265252 Z" id="Shape" fill="#343A3E"></path>
            <path d="M10.5530329,18.5843614 L16.9621182,14.8983325 C17.3859606,14.6542246 17.3859606,14.046396 16.9621182,13.8022881 L10.5530329,10.1162591 C10.1291905,9.87215127 9.6,10.1772861 9.6,10.6655019 L9.6,18.0400009 C9.6,18.5233345 10.1291905,18.8284693 10.5530329,18.5843614 Z" id="Path" fill="#343A3E"></path>
        </g>
    </g>
</svg>