<?xml version="1.0" encoding="UTF-8"?>
<svg width="22px" height="22px" viewBox="0 0 22 22" version="1.1" xmlns="http://www.w3.org/2000/svg" xmlns:xlink="http://www.w3.org/1999/xlink">
    <!-- Generator: Sketch 53.2 (72643) - https://sketchapp.com -->
    <title>icon-优惠券@3x</title>
    <desc>Created with Sketch.</desc>
    <g id="icon-优惠券" stroke="none" stroke-width="1" fill="none" fill-rule="evenodd">
        <g id="优惠券" transform="translate(0.000000, 2.500000)" fill="#FF891D" fill-rule="nonzero">
            <path d="M21.3795722,6.07038438 C21.9735315,5.71551125 21.9902425,5.44379642 21.9902425,4.97092978 L21.9902425,1.67306184 C21.9902425,0.762262978 21.1698913,0.02412787 20.1578843,0.02412787 L1.8358145,0.02412787 C0.824129813,0.02412787 0.00377859692,0.762287764 0.00377859692,1.67306184 L0.00377859692,4.97090499 C0.00377859692,5.46363143 0.041837022,5.79209921 0.614622529,6.07035959 C1.44875907,6.42000123 2.44648487,7.12652428 2.44648487,8.26912004 C2.44648487,9.75186143 1.41119652,10.2340505 0.650523888,10.4652276 C0.114854659,10.7668189 0.00377859692,11.263438 0.00377859692,11.5669632 L0.00377859692,14.8648559 C0.00377859692,15.7759275 0.824129813,16.514137 1.8358145,16.514137 L20.1580579,16.514137 C21.1699161,16.514137 21.9902673,15.7758035 21.9902673,14.8648559 L21.9902673,11.566988 C21.9902673,10.9666318 21.8370419,10.7763397 21.3795969,10.4675582 C20.0454942,9.84880503 19.5473875,9.29786281 19.5473875,8.26914482 C19.5473627,7.24007973 20.0138078,6.7281381 21.3795722,6.07038438 L21.3795722,6.07038438 Z M14.6614295,7.99433076 C14.6614295,8.14591982 14.5247415,8.26914482 14.355896,8.26914482 L11.6077057,8.26914482 L11.6077057,9.36845066 L14.355896,9.36845066 C14.5247415,9.36845066 14.6614295,9.4914773 14.6614295,9.64326472 L14.6614295,10.1929176 C14.6614295,10.3446803 14.5247415,10.4677317 14.355896,10.4677317 L11.6077057,10.4677317 L11.6077057,12.3916285 C11.6077057,12.5432672 11.4710177,12.6664426 11.3023458,12.6664426 L10.6915018,12.6664426 C10.5229786,12.6664426 10.3861914,12.5432424 10.3861914,12.3916285 L10.3861914,10.4677317 L7.63795162,10.4677317 C7.4691061,10.4677317 7.33259164,10.3446555 7.33259164,10.1929176 L7.33259164,9.64326472 C7.33259164,9.4914773 7.4691061,9.36845066 7.63795162,9.36845066 L10.3861914,9.36845066 L10.3861914,8.26914482 L7.63795162,8.26914482 C7.4691061,8.26914482 7.33259164,8.14591982 7.33259164,7.99433076 L7.33259164,7.44450428 C7.33259164,7.29274167 7.4691061,7.16951667 7.63795162,7.16951667 L9.95006914,7.16951667 L7.43989904,4.74255442 C7.33259164,4.6368834 7.33259164,4.46558328 7.43989904,4.35991227 L7.82859085,3.97731972 C7.93589825,3.8716487 8.10997526,3.8716487 8.21728266,3.97731972 L10.9940353,6.66221147 L13.7696722,3.9781627 C13.8777978,3.8716487 14.0531889,3.8716487 14.1614633,3.9781627 L14.5531303,4.36370569 C14.6614047,4.47034367 14.6614047,4.64298263 14.5531303,4.74944706 L12.0502,7.16969022 L14.3558959,7.16969022 C14.5245679,7.16969022 14.6614295,7.29276646 14.6614295,7.44450428 L14.6614295,7.99433076 L14.6614295,7.99433076 L14.6614295,7.99433076 Z" id="Shape"></path>
        </g>
    </g>
</svg>