<?xml version="1.0" encoding="UTF-8"?>
<svg width="22px" height="22px" viewBox="0 0 22 22" version="1.1" xmlns="http://www.w3.org/2000/svg" xmlns:xlink="http://www.w3.org/1999/xlink">
    <!-- Generator: Sketch 53.2 (72643) - https://sketchapp.com -->
    <title>icon-支付总额@3x</title>
    <desc>Created with Sketch.</desc>
    <g id="icon-支付总额" stroke="none" stroke-width="1" fill="none" fill-rule="evenodd">
        <g id="支付" transform="translate(0.000000, 2.000000)" fill="#FFD631" fill-rule="nonzero">
            <path d="M21.9785575,4.12334894 L0.0214424978,4.12334894 L0.0214424978,1.37870956 C0.0214424978,0.62079832 0.635850951,0.00638986623 1.39376219,0.00638986623 L20.6062378,0.00638986623 C21.364149,0.00638986623 21.9785575,0.62079832 21.9785575,1.37870956 L21.9785575,4.12334894 L21.9785575,4.12334894 Z M21.9785575,5.49566861 L21.9785575,15.7880663 C21.9785575,16.5459775 21.364149,17.160386 20.6062378,17.160386 L1.39376219,17.160386 C0.635850951,17.160386 0.0214424978,16.5459775 0.0214424978,15.7880663 L0.0214424978,5.49566861 L21.9785575,5.49566861 L21.9785575,5.49566861 Z M4.13840157,8.24030799 C3.75944595,8.24030799 3.45224172,8.54751221 3.45224172,8.92646783 C3.45224172,9.30542345 3.75944595,9.61262768 4.13840157,9.61262768 L8.25536062,9.61262768 C8.63431624,9.61262768 8.94152046,9.30542345 8.94152046,8.92646783 C8.94152046,8.54751221 8.63431624,8.24030799 8.25536062,8.24030799 L4.13840157,8.24030799 L4.13840157,8.24030799 Z M4.13840157,10.9849474 C3.75944595,10.9849474 3.45224172,11.2921516 3.45224172,11.6711072 C3.45224172,12.0500628 3.75944595,12.3572671 4.13840157,12.3572671 L6.88304093,12.3572671 C7.26199655,12.3572671 7.56920077,12.0500628 7.56920077,11.6711072 C7.56920077,11.2921516 7.26199655,10.9849474 6.88304093,10.9849474 L4.13840157,10.9849474 Z" id="Shape"></path>
        </g>
    </g>
</svg>