<?xml version="1.0" encoding="UTF-8"?>
<svg width="22px" height="22px" viewBox="0 0 22 22" version="1.1" xmlns="http://www.w3.org/2000/svg" xmlns:xlink="http://www.w3.org/1999/xlink">
    <!-- Generator: Sketch 53.2 (72643) - https://sketchapp.com -->
    <title>icon-商品@3x</title>
    <desc>Created with Sketch.</desc>
    <g id="icon-商品" stroke="none" stroke-width="1" fill="none" fill-rule="evenodd">
        <g id="商品" transform="translate(1.000000, 1.000000)" fill="#28A0FF" fill-rule="nonzero">
            <path d="M17.9490947,0.0157073118 L2.06029988,0.0157073118 C0.931429306,0.0157073118 0.013948348,0.933168739 0.013948348,2.06205885 L0.013948348,17.953668 C0.013948348,19.0825386 0.931409775,20 2.06029988,20 L17.9505018,20 C19.0793724,20 19.9968338,19.0825386 19.9968338,17.953668 L19.9968338,2.06065169 C19.9954657,0.931761564 19.0779457,0.0157073118 17.9490947,0.0157073118 Z M16.1395011,5.69389116 L16.0972466,5.71644512 L16.0915983,5.76434786 C15.6560763,8.77045437 13.0389962,11.0380653 10.0046875,11.0380653 C6.97041785,11.0380653 4.35327916,8.77045437 3.91779623,5.76434786 L3.91076033,5.71644512 L3.86846676,5.69389116 C3.56686131,5.51490577 3.38646874,5.21189314 3.38646874,4.87929065 C3.38646874,4.35220424 3.81491578,3.92375722 4.34340936,3.92375722 C4.87049578,3.92375722 5.2989428,4.35220426 5.2989428,4.87929065 C5.2989428,5.15693498 5.17350839,5.41624686 4.94378635,5.6064897 L4.89867844,5.64172782 L4.90854823,5.69811271 C5.31020023,8.21938729 7.4538035,10.0487205 10.0046875,10.0487205 C12.555591,10.0487205 14.6991748,8.21799967 15.1008267,5.69811271 L15.1107161,5.643135 L15.0670153,5.60789687 C14.8358861,5.41622731 14.7118589,5.1583226 14.7118589,4.88067828 C14.7118589,4.35359187 15.1403059,3.92514485 15.6673923,3.92514485 L15.6673923,3.92514485 L15.6673923,3.92514485 L15.6673923,3.92514485 C16.1958859,3.92514485 16.624333,4.35357234 16.624333,4.88067828 C16.6229063,5.21191267 16.4425137,5.5149253 16.1395011,5.69389116 Z" id="Shape"></path>
        </g>
    </g>
</svg>